<?xml version="1.0" encoding="UTF-8" standalone="no"?>
<!DOCTYPE svg PUBLIC "-//W3C//DTD SVG 1.1//EN" "http://www.w3.org/Graphics/SVG/1.1/DTD/svg11.dtd">
<svg width="100%" height="100%" viewBox="0 0 25 25" version="1.1" xmlns="http://www.w3.org/2000/svg" xmlns:xlink="http://www.w3.org/1999/xlink" xml:space="preserve" xmlns:serif="http://www.serif.com/">
    <g transform="matrix(1,0,0,1,-108.428,-84.5313)">
        <g transform="matrix(0.293174,0,0,0.293174,106.024,82.1273)">
            <g transform="matrix(1,0,0,1,205,-207)">
                <g>
                    <g>
                        <path style="fill:  #cf4350;fill-rule:nonzero;" d="M-155,298.8C-143.8,298.8 -133.3,294.5 -125.4,286.6C-117.5,278.7 -113.2,268.2 -113.2,257C-113.2,245.8 -117.5,235.3 -125.4,227.4C-133.3,219.5 -143.8,215.2 -155,215.2C-166.2,215.2 -176.7,219.5 -184.6,227.4C-192.5,235.3 -196.8,245.8 -196.8,257C-196.8,268.2 -192.5,278.7 -184.6,286.6C-176.7,294.5 -166.2,298.8 -155,298.8ZM-152.6,291.7C-153.4,291.8 -154.2,291.8 -155,291.8C-156.1,291.8 -157.2,291.7 -158.3,291.6C-161.9,286 -164.6,280 -166.2,273.7L-148.5,273.7C-147.9,275.2 -146.8,276.6 -145.5,277.5C-147.2,282.5 -149.6,287.2 -152.6,291.7ZM-143.1,289.7C-141.2,286.2 -139.7,282.7 -138.5,279C-135.6,278.4 -133.3,276.4 -132.2,273.7L-124.5,273.7C-128.5,281 -135.2,286.7 -143.1,289.7ZM-120.3,257C-120.3,260.3 -120.8,263.5 -121.6,266.6L-132.4,266.6C-133,265.3 -134,264.1 -135.2,263.2C-135,261 -134.9,258.8 -134.9,256.6C-134.9,253.5 -135.1,250.4 -135.5,247.4L-121.7,247.4C-120.7,250.4 -120.3,253.7 -120.3,257ZM-124.5,240.3L-136.7,240.3C-138,234.8 -139.9,229.6 -142.5,224.6C-134.9,227.5 -128.5,233.2 -124.5,240.3ZM-141.9,256.6C-141.9,258.3 -142,260 -142.1,261.7C-144.9,262.3 -147.2,264.1 -148.3,266.6L-167.6,266.6C-168,263.6 -168.3,260.5 -168.3,257.5C-168.3,255.6 -168.2,253.7 -168,251.8C-165.4,251.3 -163.3,249.6 -162,247.4L-142.5,247.4C-142.1,250.4 -141.9,253.5 -141.9,256.6ZM-157.6,222.4C-156.7,222.3 -155.8,222.3 -155,222.3C-154,222.3 -153,222.3 -152,222.4C-148.4,228 -145.7,234 -144.1,240.3L-161.5,240.3C-162.1,238.6 -163.2,237.1 -164.6,236C-162.8,231.2 -160.5,226.7 -157.6,222.4ZM-167.1,224.4C-168.8,227.6 -170.3,231 -171.5,234.4C-174.6,235 -177.1,237.3 -178.1,240.2L-185.4,240.2C-181.5,233.1 -175,227.4 -167.1,224.4ZM-189.7,257C-189.7,253.7 -189.2,250.4 -188.3,247.4L-177.4,247.4C-176.8,248.5 -175.9,249.5 -174.9,250.3C-175.1,252.7 -175.3,255.1 -175.3,257.5C-175.3,260.6 -175.1,263.6 -174.7,266.6L-188.3,266.6C-189.3,263.5 -189.7,260.3 -189.7,257ZM-173.5,273.6C-172.2,279 -170.3,284.3 -167.7,289.3C-175.3,286.3 -181.6,280.7 -185.5,273.6L-173.5,273.6Z"/>
                    </g>
                </g>
            </g>
        </g>
    </g>
</svg>
