<?xml version="1.0" encoding="UTF-8" standalone="no"?>
<!DOCTYPE svg PUBLIC "-//W3C//DTD SVG 1.1//EN" "http://www.w3.org/Graphics/SVG/1.1/DTD/svg11.dtd">
<svg width="100%" height="100%" viewBox="0 0 4439 2817" version="1.1" xmlns="http://www.w3.org/2000/svg" xmlns:xlink="http://www.w3.org/1999/xlink" xml:space="preserve" xmlns:serif="http://www.serif.com/" style="fill-rule:evenodd;clip-rule:evenodd;stroke-linejoin:round;stroke-miterlimit:2;">
    <g transform="matrix(1,0,0,1,-280.578,-1102.71)">
        <path d="M4242.62,3480.64C4054.41,3723.23 4395.09,3897.28 4395.09,3897.28L653.375,3897.28C653.375,3897.28 377.054,3346.11 771.679,2843.86C1081.57,2449.46 1444.41,2446.59 1645.5,2194.75C1700.48,2125.86 1743.39,2038.36 1769.8,1919.14C1892.79,1364 2294.27,1032.73 2782.11,1115.25C3269.93,1197.77 3160.29,1694.98 3580.38,1986.91C3601.34,2001.48 3622.14,2015.36 3642.77,2028.63C4035.71,2281.45 4366.43,2317 4511.48,2752.84C4664.16,3211.57 4363.2,3325.23 4242.62,3480.64Z" style="fill:rgb(244,221,122);fill-rule:nonzero;"/>
        <path d="M2272.78,1512.6C2272.78,1533.09 2256.17,1549.7 2235.69,1549.7C2215.2,1549.7 2198.59,1533.09 2198.59,1512.6C2198.59,1492.11 2215.2,1475.5 2235.69,1475.5C2256.17,1475.5 2272.78,1492.11 2272.78,1512.6Z" style="fill:rgb(58,36,9);fill-rule:nonzero;"/>
        <path d="M2941.27,1475.5C2941.27,1495.99 2924.66,1512.6 2904.17,1512.6C2883.69,1512.6 2867.08,1495.99 2867.08,1475.5C2867.08,1455.02 2883.69,1438.41 2904.17,1438.41C2924.66,1438.41 2941.27,1455.02 2941.27,1475.5Z" style="fill:rgb(58,36,9);fill-rule:nonzero;"/>
        <path d="M4507.5,2787.38C4507.5,2807.86 4490.89,2824.47 4470.4,2824.47C4449.92,2824.47 4433.31,2807.86 4433.31,2787.38C4433.31,2766.89 4449.92,2750.28 4470.4,2750.28C4490.89,2750.28 4507.5,2766.89 4507.5,2787.38Z" style="fill:rgb(58,36,9);fill-rule:nonzero;"/>
        <path d="M984.641,2811.77C984.641,2832.26 968.031,2848.87 947.542,2848.87C927.054,2848.87 910.444,2832.26 910.444,2811.77C910.444,2791.29 927.054,2774.68 947.542,2774.68C968.031,2774.68 984.641,2791.29 984.641,2811.77Z" style="fill:rgb(58,36,9);fill-rule:nonzero;"/>
        <path d="M2608.08,1225.21C2608.08,1237.48 2598.14,1247.42 2585.88,1247.42C2573.62,1247.42 2563.68,1237.48 2563.68,1225.21C2563.68,1212.95 2573.62,1203.01 2585.88,1203.01C2598.14,1203.01 2608.08,1212.95 2608.08,1225.21Z" style="fill:rgb(58,36,9);fill-rule:nonzero;"/>
        <path d="M4080.41,2462.9C4080.41,2475.16 4070.47,2485.1 4058.21,2485.1C4045.95,2485.1 4036.01,2475.16 4036.01,2462.9C4036.01,2450.64 4045.95,2440.7 4058.21,2440.7C4070.47,2440.7 4080.41,2450.64 4080.41,2462.9Z" style="fill:rgb(58,36,9);fill-rule:nonzero;"/>
        <path d="M824.504,2529.57C824.504,2541.83 814.565,2551.77 802.304,2551.77C790.042,2551.77 780.103,2541.83 780.103,2529.57C780.103,2517.3 790.042,2507.37 802.304,2507.37C814.565,2507.37 824.504,2517.3 824.504,2529.57Z" style="fill:rgb(58,36,9);fill-rule:nonzero;"/>
        <path d="M3920.64,1822.88L3920.64,3897.29L1079.36,3897.29L1079.36,1822.88C1079.36,1810.57 1080.98,1798.63 1084.04,1787.29C1099.7,1728.88 1153.02,1685.88 1216.36,1685.88L3783.64,1685.88C3859.3,1685.88 3920.64,1747.22 3920.64,1822.88Z" style="fill:white;fill-rule:nonzero;"/>
        <path d="M3842.64,1913.09L3842.64,3897.29L1079.36,3897.29L1079.36,1822.88C1079.36,1810.57 1080.98,1798.63 1084.04,1787.29C1100.7,1780.07 1119.05,1776.09 1138.36,1776.09L3705.64,1776.09C3781.3,1776.09 3842.64,1837.43 3842.64,1913.09Z" style="fill:rgb(224,224,224);fill-rule:nonzero;"/>
        <path d="M3920.64,3897.28L3920.64,3201.5L3920.64,3897.29" style="fill:rgb(237,196,30);fill-rule:nonzero;"/>
        <rect x="3842.64" y="3201.5" width="78" height="695.79" style="fill:white;fill-rule:nonzero;"/>
        <rect x="1079.36" y="3201.5" width="2763.28" height="695.79" style="fill:rgb(202,201,201);fill-rule:nonzero;"/>
        <path d="M1101.68,3874.97L3898.32,3874.97L3898.32,1822.88C3898.32,1759.65 3846.87,1708.2 3783.64,1708.2L1216.36,1708.2C1153.13,1708.2 1101.68,1759.65 1101.68,1822.88L1101.68,3874.97ZM3920.64,3919.61L1079.36,3919.61C1067.03,3919.61 1057.04,3909.62 1057.04,3897.29L1057.04,1822.88C1057.04,1735.03 1128.51,1663.56 1216.36,1663.56L3783.64,1663.56C3871.49,1663.56 3942.96,1735.03 3942.96,1822.88L3942.96,3897.29C3942.96,3909.62 3932.97,3919.61 3920.64,3919.61Z" style="fill:rgb(58,36,9);fill-rule:nonzero;"/>
        <path d="M1785.08,2777.05L1785.08,2659.32C1785.08,2649.89 1792.73,2642.24 1802.17,2642.24L1954.77,2642.24C1964.2,2642.24 1971.85,2649.89 1971.85,2659.32L1971.85,2777.05C1971.85,2786.49 1979.5,2794.14 1988.94,2794.14L2053.14,2794.14C2062.58,2794.14 2070.22,2801.78 2070.22,2811.22L2070.22,2945.15C2070.22,2954.58 2062.58,2962.23 2053.14,2962.23L1988.94,2962.23C1979.5,2962.23 1971.85,2969.88 1971.85,2979.31L1971.85,3153.08C1971.85,3162.51 1964.2,3170.16 1954.77,3170.16L1802.17,3170.16C1792.73,3170.16 1785.08,3162.51 1785.08,3153.08L1785.08,2979.31C1785.08,2969.88 1777.44,2962.23 1768,2962.23L1452.31,2962.23C1442.88,2962.23 1435.23,2954.58 1435.23,2945.15L1435.23,2818.82C1435.23,2815.71 1436.08,2812.66 1437.68,2810L1740.26,2308.12C1743.36,2302.99 1748.91,2299.85 1754.89,2299.85L1926.82,2299.85C1940.08,2299.85 1948.28,2314.31 1941.49,2325.69L1677.26,2768.3C1670.46,2779.68 1678.67,2794.14 1691.93,2794.14L1768,2794.14C1777.44,2794.14 1785.08,2786.49 1785.08,2777.05Z" style="fill:rgb(122,111,111);fill-rule:nonzero;"/>
        <path d="M1701.16,2771.81L1762.76,2771.81L1762.76,2668.62L1701.16,2771.81ZM1807.41,3147.84L1949.53,3147.84L1949.53,2979.31C1949.53,2957.58 1967.21,2939.91 1988.94,2939.91L2047.9,2939.91L2047.9,2816.46L1988.94,2816.46C1967.21,2816.46 1949.53,2798.78 1949.53,2777.05L1949.53,2664.56L1807.41,2664.56L1807.41,2777.05C1807.41,2798.78 1789.73,2816.46 1768,2816.46L1691.93,2816.46C1677.78,2816.46 1664.65,2808.81 1657.66,2796.5C1650.67,2784.2 1650.84,2769.01 1658.09,2756.86L1917.59,2322.17L1757.85,2322.17L1457.55,2820.27L1457.55,2939.91L1768,2939.91C1789.73,2939.91 1807.41,2957.58 1807.41,2979.31L1807.41,3147.84ZM1954.77,3192.48L1802.17,3192.48C1780.44,3192.48 1762.76,3174.8 1762.76,3153.08L1762.76,2984.55L1452.31,2984.55C1430.58,2984.55 1412.91,2966.87 1412.91,2945.15L1412.91,2818.82C1412.91,2811.65 1414.86,2804.61 1418.56,2798.47L1721.15,2296.59C1728.23,2284.84 1741.17,2277.53 1754.89,2277.53L1926.82,2277.53C1940.97,2277.53 1954.1,2285.18 1961.09,2297.48C1968.07,2309.79 1967.91,2324.98 1960.65,2337.13L1790.85,2621.57C1794.43,2620.5 1798.23,2619.92 1802.17,2619.92L1954.77,2619.92C1976.5,2619.92 1994.17,2637.59 1994.17,2659.32L1994.17,2771.81L2053.14,2771.81C2074.87,2771.81 2092.54,2789.49 2092.54,2811.22L2092.54,2945.15C2092.54,2966.87 2074.87,2984.55 2053.14,2984.55L1994.17,2984.55L1994.17,3153.08C1994.17,3174.8 1976.5,3192.48 1954.77,3192.48Z" style="fill:rgb(58,36,9);fill-rule:nonzero;"/>
        <path d="M2375.48,2520.24C2348.08,2573.37 2334.39,2643.51 2334.39,2730.65C2334.39,2817.8 2348.08,2887.94 2375.48,2941.07C2402.86,2994.2 2445.62,3020.74 2503.71,3020.74C2561.81,3020.74 2604.57,2994.2 2631.95,2941.07C2659.33,2887.94 2673.04,2817.8 2673.04,2730.65C2673.04,2643.51 2659.33,2573.37 2631.95,2520.24C2604.57,2467.11 2561.81,2440.55 2503.71,2440.55C2445.62,2440.55 2402.86,2467.11 2375.48,2520.24ZM2503.71,3180.11C2383.35,3180.11 2293.3,3139.25 2233.54,3057.49C2173.77,2975.73 2143.89,2866.59 2143.89,2730.03C2143.89,2593.49 2173.77,2484.33 2233.54,2402.57C2293.3,2320.81 2383.35,2279.92 2503.71,2279.92C2624.06,2279.92 2714.13,2320.81 2773.89,2402.57C2833.66,2484.33 2863.54,2593.49 2863.54,2730.03C2863.54,2866.59 2833.66,2975.73 2773.89,3057.49C2714.13,3139.25 2624.06,3180.11 2503.71,3180.11Z" style="fill:rgb(122,111,111);fill-rule:nonzero;"/>
        <path d="M2503.71,2462.87C2454.22,2462.87 2418.76,2484.98 2395.32,2530.46L2395.32,2530.47C2369.7,2580.14 2356.71,2647.5 2356.71,2730.65C2356.71,2813.81 2369.7,2881.16 2395.32,2930.84C2418.76,2976.32 2454.21,2998.42 2503.71,2998.42C2553.22,2998.42 2588.67,2976.32 2612.11,2930.84C2637.73,2881.13 2650.72,2813.77 2650.72,2730.65C2650.72,2647.53 2637.73,2580.18 2612.11,2530.47C2588.67,2484.98 2553.21,2462.87 2503.71,2462.87ZM2503.71,3043.06C2436.84,3043.06 2387.02,3012.19 2355.64,2951.29C2326.73,2895.24 2312.07,2821 2312.07,2730.65C2312.07,2640.31 2326.73,2566.08 2355.64,2510.02C2387.03,2449.11 2436.85,2418.22 2503.71,2418.22C2570.58,2418.22 2620.41,2449.11 2651.79,2510.02C2680.7,2566.12 2695.36,2640.35 2695.36,2730.65C2695.36,2820.96 2680.7,2895.19 2651.79,2951.29C2620.41,3012.19 2570.59,3043.06 2503.71,3043.06ZM2503.71,2302.25C2389.86,2302.25 2307.38,2339.37 2251.56,2415.74C2194.92,2493.21 2166.21,2598.96 2166.21,2730.03C2166.21,2861.1 2194.92,2966.84 2251.56,3044.32C2307.37,3120.67 2389.85,3157.79 2503.71,3157.79C2617.58,3157.79 2700.06,3120.67 2755.87,3044.32C2812.51,2966.84 2841.22,2861.1 2841.22,2730.03C2841.22,2598.96 2812.51,2493.21 2755.87,2415.74C2700.05,2339.37 2617.57,2302.25 2503.71,2302.25ZM2503.71,3202.43C2376.39,3202.43 2279.43,3158.1 2215.52,3070.66C2153.17,2985.38 2121.56,2870.77 2121.56,2730.03C2121.56,2589.28 2153.17,2474.68 2215.52,2389.39C2279.44,2301.94 2376.4,2257.6 2503.71,2257.6C2631.03,2257.6 2727.99,2301.94 2791.92,2389.39C2854.25,2474.68 2885.86,2589.28 2885.86,2730.03C2885.86,2870.77 2854.25,2985.38 2791.92,3070.66C2728,3158.1 2631.04,3202.43 2503.71,3202.43Z" style="fill:rgb(58,36,9);fill-rule:nonzero;"/>
        <path d="M3279.63,2777.05L3279.63,2659.32C3279.63,2649.89 3287.28,2642.24 3296.71,2642.24L3449.32,2642.24C3458.75,2642.24 3466.4,2649.89 3466.4,2659.32L3466.4,2777.05C3466.4,2786.49 3474.05,2794.14 3483.48,2794.14L3547.69,2794.14C3557.12,2794.14 3564.77,2801.78 3564.77,2811.22L3564.77,2945.15C3564.77,2954.58 3557.12,2962.23 3547.69,2962.23L3483.48,2962.23C3474.05,2962.23 3466.4,2969.88 3466.4,2979.31L3466.4,3153.08C3466.4,3162.51 3458.75,3170.16 3449.32,3170.16L3296.71,3170.16C3287.28,3170.16 3279.63,3162.51 3279.63,3153.08L3279.63,2979.31C3279.63,2969.88 3271.98,2962.23 3262.55,2962.23L2946.86,2962.23C2937.42,2962.23 2929.78,2954.58 2929.78,2945.15L2929.78,2818.82C2929.78,2815.71 2930.63,2812.66 2932.23,2810L3234.81,2308.12C3237.9,2302.99 3243.45,2299.85 3249.44,2299.85L3421.37,2299.85C3434.63,2299.85 3442.83,2314.31 3436.03,2325.69L3171.81,2768.3C3165.01,2779.68 3173.21,2794.14 3186.48,2794.14L3262.55,2794.14C3271.98,2794.14 3279.63,2786.49 3279.63,2777.05Z" style="fill:rgb(122,111,111);fill-rule:nonzero;"/>
        <path d="M3195.71,2771.81L3257.31,2771.81L3257.31,2668.62L3195.71,2771.81ZM3301.95,3147.84L3444.08,3147.84L3444.08,2979.31C3444.08,2957.58 3461.76,2939.91 3483.48,2939.91L3542.45,2939.91L3542.45,2816.46L3483.48,2816.46C3461.76,2816.46 3444.08,2798.78 3444.08,2777.05L3444.08,2664.56L3301.95,2664.56L3301.95,2777.05C3301.95,2798.78 3284.28,2816.46 3262.55,2816.46L3186.48,2816.46C3172.33,2816.46 3159.19,2808.81 3152.21,2796.5C3145.22,2784.2 3145.39,2769.01 3152.64,2756.86L3412.14,2322.17L3252.4,2322.17L2952.1,2820.27L2952.1,2939.91L3262.55,2939.91C3284.28,2939.91 3301.95,2957.58 3301.95,2979.31L3301.95,3147.84ZM3449.32,3192.48L3296.71,3192.48C3274.99,3192.48 3257.31,3174.8 3257.31,3153.08L3257.31,2984.55L2946.86,2984.55C2925.13,2984.55 2907.46,2966.87 2907.46,2945.15L2907.46,2818.82C2907.46,2811.64 2909.41,2804.6 2913.12,2798.46L3215.7,2296.59C3222.79,2284.83 3235.72,2277.53 3249.44,2277.53L3421.37,2277.53C3435.52,2277.53 3448.65,2285.18 3455.63,2297.48C3462.62,2309.79 3462.45,2324.98 3455.2,2337.13L3285.4,2621.57C3288.98,2620.5 3292.78,2619.92 3296.71,2619.92L3449.32,2619.92C3471.04,2619.92 3488.72,2637.59 3488.72,2659.32L3488.72,2771.81L3547.69,2771.81C3569.42,2771.81 3587.09,2789.49 3587.09,2811.22L3587.09,2945.15C3587.09,2966.87 3569.42,2984.55 3547.69,2984.55L3488.72,2984.55L3488.72,3153.08C3488.72,3174.8 3471.04,3192.48 3449.32,3192.48Z" style="fill:rgb(58,36,9);fill-rule:nonzero;"/>
        <path d="M1262.38,1818.06C1262.38,1841.23 1243.59,1860.02 1220.41,1860.02C1197.23,1860.02 1178.45,1841.23 1178.45,1818.06C1178.45,1794.88 1197.23,1776.09 1220.41,1776.09C1243.59,1776.09 1262.38,1794.88 1262.38,1818.06Z" style="fill:rgb(226,59,59);fill-rule:nonzero;"/>
        <path d="M1390.6,1818.06C1390.6,1841.23 1371.81,1860.02 1348.64,1860.02C1325.46,1860.02 1306.67,1841.23 1306.67,1818.06C1306.67,1794.88 1325.46,1776.09 1348.64,1776.09C1371.81,1776.09 1390.6,1794.88 1390.6,1818.06Z" style="fill:rgb(252,227,50);fill-rule:nonzero;"/>
        <path d="M1518.83,1818.06C1518.83,1841.23 1500.04,1860.02 1476.87,1860.02C1453.69,1860.02 1434.9,1841.23 1434.9,1818.06C1434.9,1794.88 1453.69,1776.09 1476.87,1776.09C1500.04,1776.09 1518.83,1794.88 1518.83,1818.06Z" style="fill:rgb(70,204,70);fill-rule:nonzero;"/>
        <path d="M336.068,3303.32C340.103,3311.89 343.8,3320.32 347.211,3328.73C380.068,3409.63 386.3,3488.07 405.711,3667.64C427.139,3865.89 647.96,3897.29 647.96,3897.29L1232.12,3897.29C1232.12,3897.29 1252.23,3774.8 1129,3742.66C1005.78,3710.52 898.621,3565.86 903.978,3434.57C909.335,3303.29 812.907,3190.82 695.032,3173.64C618.8,3162.55 571.711,3083.36 513.175,3036.07C481.175,3010.23 445.782,2993.93 400.354,3003.43C271.782,3030.36 293.211,3212.25 336.068,3303.32Z" style="fill:rgb(96,188,74);fill-rule:nonzero;"/>
        <path d="M336.068,3303.32C340.103,3311.89 343.8,3320.32 347.211,3328.73L351.219,3327.82C373.348,3322.79 385.542,3299.09 376.945,3278.09C360.433,3237.75 342.414,3172.98 364.014,3114.88C385.572,3056.88 428.032,3058.33 456.877,3067.59C475.616,3073.61 496.008,3065.5 505.925,3048.5L513.175,3036.07C481.175,3010.23 445.782,2993.93 400.354,3003.43C271.782,3030.36 293.211,3212.25 336.068,3303.32Z" style="fill:rgb(165,226,145);fill-rule:nonzero;"/>
        <path d="M1204.96,3837.03C1193.32,3799.83 1165.87,3775.34 1123.37,3764.26C988.864,3729.17 875.925,3574.68 881.68,3433.66C886.383,3318.4 801.209,3211.67 691.815,3195.74C631.514,3186.96 589.631,3143.47 549.127,3101.42C503.392,3053.94 463.878,3012.95 404.936,3025.28C375.177,3031.52 354.245,3047.52 340.945,3074.21C311.54,3133.23 326.891,3231.41 356.265,3293.83C397.526,3381.5 405.089,3452.17 423.361,3622.9C424.802,3636.37 426.31,3650.47 427.909,3665.25C435.931,3739.45 475.208,3797.13 544.647,3836.69C593.381,3864.45 641.051,3873.49 649.742,3874.97L1210.97,3874.97C1210.74,3864.65 1209.37,3851.12 1204.96,3837.03ZM644.823,3919.39C642.399,3919.04 584.759,3910.55 523.917,3876.25C441.642,3829.87 393.095,3758.57 383.524,3670.05C381.925,3655.25 380.415,3641.14 378.971,3627.65C361.264,3462.2 353.936,3393.72 315.87,3312.83C287.814,3253.21 260.696,3135.16 300.987,3054.31C320.228,3015.69 353.007,2990.55 395.784,2981.59C478.917,2964.18 533.299,3020.64 581.28,3070.45C618.198,3108.78 653.068,3144.98 698.25,3151.56C761.601,3160.79 820.109,3194.75 862.996,3247.19C906.589,3300.48 929.065,3367.36 926.284,3435.48C921.397,3555.22 1020.71,3691.34 1134.64,3721.06C1208.33,3740.29 1237.05,3788.53 1248.16,3825.62C1259.88,3864.75 1254.39,3899.45 1254.15,3900.91C1252.38,3911.69 1243.06,3919.61 1232.12,3919.61L647.965,3919.61C646.914,3919.61 645.864,3919.54 644.823,3919.39Z" style="fill:rgb(58,36,9);fill-rule:nonzero;"/>
        <path d="M402.908,3271.5C405.898,3259.53 418.025,3252.27 429.976,3255.25C438.647,3257.42 481.943,3268.66 527.441,3287.8C485.052,3232.67 449.963,3193.64 449.184,3192.78C440.918,3183.63 441.63,3169.52 450.773,3161.25C459.916,3152.98 474.027,3153.69 482.298,3162.83C489.649,3170.96 662.86,3363.59 709.325,3509.85C710.821,3514.56 712.344,3519.23 713.882,3523.89C762.374,3441.09 746.316,3322.88 746.024,3320.82C744.246,3308.63 752.686,3297.29 764.882,3295.51C777.083,3293.72 788.414,3302.17 790.198,3314.37C791.204,3321.24 812.993,3478.11 732.162,3575.44C755.243,3636.31 781.932,3692.03 811.041,3740.48C811.722,3741.44 812.342,3742.44 812.869,3743.5C847.385,3800.4 885.223,3847.14 924.4,3880.24C933.817,3888.2 935.001,3902.28 927.044,3911.7C922.629,3916.92 916.328,3919.61 909.984,3919.61C904.896,3919.61 899.779,3917.88 895.588,3914.34C855.189,3880.21 816.274,3833.05 780.707,3776.14C779.963,3776.14 779.218,3776.17 778.476,3776.17C638.809,3776.17 520.023,3673.2 514.856,3668.65C505.598,3660.51 504.691,3646.41 512.831,3637.15C520.972,3627.89 535.077,3626.99 544.334,3635.13C545.394,3636.06 641.142,3719.08 753.91,3730.27C720.483,3669.06 690.826,3599.05 666.778,3523.37C652.86,3479.56 625.766,3430.17 595.296,3383.17C569.348,3347.25 474.64,3312.46 419.145,3298.56C407.188,3295.57 399.918,3283.45 402.908,3271.5Z" style="fill:rgb(58,36,9);fill-rule:nonzero;"/>
        <path d="M588.175,3462.59C607.889,3505.3 636.05,3547.25 673.604,3586.98C677.104,3590.68 680.675,3594.36 684.318,3598C702.032,3615.71 716.782,3633.59 729.014,3651.32C764.979,3703.39 779.229,3754.14 783.55,3795.88C789.746,3855.88 775.389,3897.29 775.389,3897.29L1601.94,3897.29C1601.94,3897.29 1632.62,3785.52 1536.19,3748.02C1476.42,3724.79 1402.28,3693.32 1367.25,3650.93C1345.75,3624.91 1339,3594.79 1359.39,3559.93C1412.96,3468.29 1445.1,3324.77 1359.39,3190.89C1273.66,3057.04 1161.16,3072.95 1098.35,2948.54C1035.55,2824.13 1059.35,2681.84 898.621,2642.7C890.318,2640.68 882.21,2639.2 874.3,2638.23C729.3,2620.39 653.014,2773.7 668.514,2886.21C684.871,3004.86 652.175,3003.3 587.871,3140.25C542.675,3236.52 537.193,3352.14 588.175,3462.59Z" style="fill:rgb(96,188,74);fill-rule:nonzero;"/>
        <path d="M1367.25,3650.93C1330.03,3681.88 1284.63,3707.94 1230.37,3720.41C1208.6,3725.41 1194.07,3745.95 1196.91,3768.11C1201.21,3801.58 1206.65,3850.67 1208.64,3897.29L1601.94,3897.29C1601.94,3897.29 1632.62,3785.52 1536.19,3748.02C1476.42,3724.79 1402.28,3693.32 1367.25,3650.93Z" style="fill:rgb(71,155,47);fill-rule:nonzero;"/>
        <path d="M729.014,3651.32C764.979,3703.39 779.229,3754.14 783.55,3795.88C798.657,3833.34 804.175,3868.25 805.157,3897.29L1154.57,3897.29L1148.51,3807.93L1123.14,3733.04C1123.14,3733.04 1013.12,3677.02 914.746,3692.46C849.443,3702.71 792.193,3676.71 761.068,3658.07C751.247,3652.2 739.943,3649.93 729.014,3651.32Z" style="fill:rgb(71,155,47);fill-rule:nonzero;"/>
        <path d="M588.175,3462.59L599.289,3458.17C630.378,3445.8 646.433,3411.51 636.354,3379.6C630.93,3362.43 625.441,3341.48 621.085,3317.09C607.693,3242.09 623.764,3185.84 685.371,3089.41C746.979,2993 720.193,2918 733.585,2805.5C742.195,2733.19 790.589,2705.54 824.058,2695.02C845.698,2688.21 862.697,2671.33 870.202,2649.92L874.3,2638.23C729.3,2620.39 653.014,2773.7 668.514,2886.21C684.871,3004.86 652.175,3003.3 587.871,3140.25C542.675,3236.52 537.193,3352.14 588.175,3462.59Z" style="fill:rgb(165,226,145);fill-rule:nonzero;"/>
        <path d="M1583.11,3839.69C1578.39,3804.56 1560.39,3781.38 1528.1,3768.82C1438,3733.78 1351.63,3692.76 1329.87,3630.36C1320.57,3603.68 1324.02,3576.2 1340.11,3548.66C1364.95,3506.17 1438.4,3355.67 1340.59,3202.94C1301.09,3141.26 1255.06,3113.37 1210.56,3086.39C1162.66,3057.36 1113.13,3027.34 1078.43,2958.6C1058.62,2919.35 1047.33,2879.55 1036.41,2841.06C1012.27,2755.94 993.194,2688.7 893.342,2664.38C840.65,2651.56 793.062,2662.59 755.72,2696.31C708.155,2739.26 681.39,2816.09 690.631,2883.17C703.331,2975.34 686.957,3004.18 654.331,3061.63C641.764,3083.76 626.124,3111.31 608.085,3149.74C539.975,3294.82 574.375,3456.49 700.1,3582.22C779.609,3661.73 801.764,3744.56 806.348,3800.05C808.882,3830.71 806.5,3856.61 803.441,3874.97L1583.25,3874.96C1584.32,3865.57 1584.9,3853.01 1583.11,3839.69ZM757.211,3910.23C753.024,3904.35 751.941,3896.81 754.304,3889.98C754.794,3888.57 801.765,3747.02 668.533,3613.79C597.327,3542.58 551.417,3458.33 535.764,3370.14C521.32,3288.77 532.356,3206 567.673,3130.77C586.447,3090.77 602.562,3062.39 615.51,3039.59C646.576,2984.88 657.042,2966.45 646.406,2889.26C635.089,2807.13 666.996,2716.27 725.803,2663.17C759.841,2632.44 818.365,2600.18 903.907,2621.01C1029.04,2651.48 1054.62,2741.66 1079.36,2828.88C1089.7,2865.34 1100.4,2903.05 1118.28,2938.48C1147.21,2995.79 1187.29,3020.08 1233.7,3048.21C1280.28,3076.45 1333.09,3108.46 1378.18,3178.86C1419.96,3244.1 1438.71,3316.02 1433.9,3392.64C1429.02,3470.46 1401.16,3532.69 1378.65,3571.19C1369.2,3587.37 1367.09,3601.5 1372.03,3615.66C1390,3667.22 1498.11,3709.26 1544.28,3727.21C1591.74,3745.67 1620.47,3782.51 1627.35,3833.74C1632.29,3870.45 1623.83,3901.87 1623.47,3903.19C1620.81,3912.89 1612,3919.61 1601.95,3919.61L775.396,3919.61C768.175,3919.61 761.4,3916.12 757.211,3910.23Z" style="fill:rgb(58,36,9);fill-rule:nonzero;"/>
        <path d="M683.716,3236.65C692.813,3228.34 706.931,3228.98 715.249,3238.08C716.133,3239.05 804.588,3335.15 880.966,3359.05C921.455,3371.73 960.222,3388.04 989.959,3401.77C937.886,3271.87 906.641,3119.96 889.573,3015.18C803.1,2965.5 764.666,2833.8 763.011,2828C759.632,2816.15 766.496,2803.81 778.34,2800.42C790.188,2797.03 802.54,2803.89 805.937,2815.74C806.235,2816.78 830.694,2900.26 879.963,2951.17C874.993,2914.94 872.654,2891.82 872.316,2888.4C871.106,2876.13 880.072,2865.21 892.34,2864C904.604,2862.8 915.535,2871.75 916.743,2884.02C917.061,2887.25 949.669,3208.86 1048.56,3425.3C1063.37,3457.72 1076.33,3490.42 1087.68,3522.68C1109.02,3473.83 1142.67,3448.95 1149.08,3444.53C1235.45,3376.72 1197.3,3209.76 1196.67,3207.11C1193.8,3195.12 1201.2,3183.07 1213.18,3180.2C1225.17,3177.33 1237.22,3184.72 1240.09,3196.71C1242.02,3204.76 1286.02,3394.82 1175.91,3480.23C1175.42,3480.6 1174.92,3480.96 1174.4,3481.3C1173.81,3481.68 1115.97,3520.4 1114.55,3608.08C1157.66,3762.26 1165.43,3888.78 1165.84,3896.02C1166.54,3908.32 1157.14,3918.86 1144.83,3919.57C1144.4,3919.59 1143.97,3919.61 1143.54,3919.61C1131.8,3919.61 1121.96,3910.43 1121.27,3898.56C1121.22,3897.7 1119.24,3865.74 1112,3815.06C1089.92,3796.87 1005.05,3733.79 871.455,3716.63C859.227,3715.06 850.59,3703.87 852.159,3691.65C853.73,3679.42 864.919,3670.77 877.144,3672.35C980.477,3685.63 1056.85,3723.87 1101.79,3752.68C1086.88,3671.69 1061.13,3566.96 1017.33,3465.01C997.189,3454.43 933.911,3422.4 867.633,3401.66C779.695,3374.14 686.215,3272.49 682.277,3268.18C673.97,3259.08 674.615,3244.97 683.716,3236.65Z" style="fill:rgb(58,36,9);fill-rule:nonzero;"/>
        <path d="M3647.07,3897.29L4473.63,3897.29C4473.63,3897.29 4459.27,3855.88 4465.46,3795.88C4469.79,3754.14 4484.04,3703.39 4520,3651.32C4532.23,3633.59 4546.98,3615.71 4564.7,3598C4568.34,3594.36 4571.91,3590.68 4575.41,3586.98C4612.96,3547.25 4641.13,3505.3 4660.84,3462.59C4711.82,3352.14 4706.34,3236.52 4661.14,3140.25C4596.84,3003.3 4564.14,3004.86 4580.5,2886.21C4586.61,2841.95 4578.48,2791.34 4557.55,2747.36C4525.32,2679.55 4462.66,2627.41 4374.71,2638.23C4366.8,2639.2 4358.7,2640.68 4350.39,2642.7C4247.84,2667.68 4220.41,2734.63 4197.7,2812.14C4184.79,2856.13 4173.39,2903.5 4150.66,2948.54C4087.86,3072.95 3975.36,3057.04 3889.63,3190.89C3803.91,3324.77 3836.05,3468.29 3889.63,3559.93C3910.02,3594.79 3903.27,3624.91 3881.77,3650.93C3846.73,3693.32 3772.59,3724.79 3712.82,3748.02C3616.39,3785.52 3647.07,3897.29 3647.07,3897.29Z" style="fill:rgb(96,188,74);fill-rule:nonzero;"/>
        <path d="M4197.7,2812.14C4221.48,2831.47 4257.08,2824.78 4271.91,2797.96C4290.93,2763.56 4323.32,2723.36 4374.75,2709.07C4428.98,2694.01 4468.16,2720.67 4492.06,2746.88C4509.54,2766.04 4539.47,2766.62 4557.22,2747.71L4557.55,2747.36C4525.32,2679.55 4462.66,2627.41 4374.71,2638.23C4366.8,2639.2 4358.7,2640.68 4350.39,2642.7C4247.84,2667.68 4220.41,2734.63 4197.7,2812.14Z" style="fill:rgb(165,226,145);fill-rule:nonzero;"/>
        <path d="M3881.77,3650.93C3918.99,3681.88 3964.39,3707.94 4018.65,3720.41C4040.42,3725.41 4054.94,3745.95 4052.1,3768.11C4047.81,3801.58 4042.37,3850.67 4040.38,3897.29L3647.07,3897.29C3647.07,3897.29 3616.4,3785.52 3712.83,3748.02C3772.59,3724.79 3846.74,3693.32 3881.77,3650.93Z" style="fill:rgb(71,155,47);fill-rule:nonzero;"/>
        <path d="M4520,3651.32C4484.04,3703.39 4469.79,3754.14 4465.47,3795.88C4450.36,3833.34 4444.84,3868.25 4443.86,3897.29L4094.45,3897.29L4100.5,3807.93L4125.88,3733.04C4125.88,3733.04 4235.9,3677.02 4334.27,3692.46C4399.57,3702.71 4456.82,3676.71 4487.95,3658.07C4497.77,3652.2 4509.07,3649.93 4520,3651.32Z" style="fill:rgb(71,155,47);fill-rule:nonzero;"/>
        <path d="M3665.76,3874.96L4445.58,3874.97C4442.52,3856.61 4440.14,3830.71 4442.67,3800.05C4447.25,3744.56 4469.41,3661.73 4548.92,3582.22C4674.64,3456.49 4709.04,3294.82 4640.93,3149.74C4622.89,3111.31 4607.25,3083.76 4594.69,3061.63C4562.06,3004.18 4545.69,2975.34 4558.39,2883.17C4567.63,2816.09 4540.86,2739.26 4493.3,2696.31C4455.96,2662.59 4408.37,2651.56 4355.67,2664.38C4255.82,2688.7 4236.75,2755.94 4212.61,2841.06C4201.69,2879.55 4190.4,2919.35 4170.59,2958.6C4135.89,3027.34 4086.36,3057.36 4038.46,3086.39C3993.95,3113.37 3947.93,3141.26 3908.43,3202.94C3810.62,3355.67 3884.07,3506.17 3908.9,3548.66C3925,3576.2 3928.44,3603.68 3919.14,3630.36C3897.39,3692.76 3811.02,3733.78 3720.92,3768.82C3688.62,3781.38 3670.63,3804.56 3665.91,3839.69C3664.12,3853.01 3664.69,3865.57 3665.76,3874.96ZM4473.62,3919.61L3647.07,3919.61C3637.02,3919.61 3628.21,3912.89 3625.55,3903.19C3625.18,3901.87 3616.73,3870.45 3621.66,3833.74C3628.55,3782.51 3657.28,3745.67 3704.74,3727.21C3750.91,3709.26 3859.02,3667.22 3876.99,3615.66C3881.93,3601.5 3879.82,3587.37 3870.36,3571.19C3847.85,3532.69 3820,3470.46 3815.12,3392.64C3810.31,3316.02 3829.06,3244.1 3870.84,3178.86C3915.93,3108.46 3968.73,3076.45 4015.32,3048.21C4061.73,3020.08 4101.81,2995.79 4130.74,2938.48C4148.62,2903.05 4159.32,2865.34 4169.66,2828.88C4194.4,2741.66 4219.97,2651.48 4345.11,2621.01C4430.65,2600.18 4489.18,2632.44 4523.21,2663.17C4582.02,2716.27 4613.93,2807.13 4602.61,2889.26C4591.98,2966.45 4602.44,2984.88 4633.51,3039.59C4646.46,3062.39 4662.57,3090.77 4681.34,3130.77C4716.66,3206 4727.7,3288.77 4713.25,3370.14C4697.6,3458.33 4651.69,3542.58 4580.48,3613.79C4447.25,3747.02 4494.22,3888.57 4494.71,3889.98C4497.08,3896.81 4495.99,3904.35 4491.81,3910.23C4487.62,3916.12 4480.84,3919.61 4473.62,3919.61Z" style="fill:rgb(58,36,9);fill-rule:nonzero;"/>
        <path d="M4008.93,3196.71C4011.8,3184.72 4023.84,3177.33 4035.83,3180.2C4047.82,3183.07 4055.21,3195.12 4052.34,3207.11C4051.72,3209.76 4013.57,3376.72 4099.93,3444.53C4106.34,3448.95 4140,3473.83 4161.33,3522.68C4172.69,3490.42 4185.65,3457.72 4200.46,3425.3C4222.21,3377.71 4240.74,3325.03 4256.44,3271.77C4189.35,3208.24 4168.19,3084.27 4167.26,3078.63C4165.25,3066.47 4173.49,3054.98 4185.65,3052.98C4197.81,3050.96 4209.3,3059.2 4211.31,3071.37C4216.15,3100.71 4234.99,3173.48 4270.62,3220.7C4315.55,3049.04 4332.05,2886.31 4332.27,2884.02C4333.48,2871.75 4344.41,2862.8 4356.68,2864C4368.95,2865.21 4377.91,2876.13 4376.7,2888.4C4376.36,2891.82 4374.02,2914.94 4369.05,2951.17C4418.32,2900.26 4442.78,2816.78 4443.08,2815.74C4446.48,2803.89 4458.83,2797.03 4470.68,2800.42C4482.52,2803.81 4489.39,2816.15 4486.01,2828C4484.35,2833.8 4445.92,2965.5 4359.44,3015.18C4342.38,3119.96 4311.13,3271.87 4259.06,3401.77C4288.79,3388.04 4327.56,3371.73 4368.05,3359.05C4444.43,3335.15 4532.88,3239.05 4533.77,3238.08C4542.09,3228.98 4556.21,3228.34 4565.3,3236.65C4574.4,3244.97 4575.05,3259.08 4566.74,3268.18C4562.8,3272.49 4469.32,3374.14 4381.38,3401.66C4315.11,3422.4 4251.83,3454.43 4231.69,3465.01C4187.89,3566.96 4162.14,3671.69 4147.23,3752.68C4192.16,3723.87 4268.54,3685.63 4371.87,3672.35C4384.1,3670.77 4395.29,3679.42 4396.86,3691.65C4398.43,3703.87 4389.79,3715.06 4377.56,3716.63C4243.97,3733.79 4159.1,3796.87 4137.02,3815.06C4129.77,3865.74 4127.79,3897.7 4127.75,3898.56C4127.06,3910.43 4117.22,3919.61 4105.48,3919.61C4105.05,3919.61 4104.62,3919.59 4104.18,3919.57C4091.88,3918.86 4082.47,3908.32 4083.18,3896.02C4083.59,3888.78 4091.36,3762.26 4134.46,3608.08C4133.04,3520.4 4075.21,3481.68 4074.61,3481.3C4074.1,3480.96 4073.59,3480.6 4073.11,3480.23C3962.99,3394.82 4007,3204.76 4008.93,3196.71Z" style="fill:rgb(58,36,9);fill-rule:nonzero;"/>
        <path d="M4609.09,3919.61L343.798,3919.61C331.47,3919.61 321.477,3909.62 321.477,3897.29C321.477,3884.96 331.47,3874.97 343.798,3874.97L4609.09,3874.97C4621.42,3874.97 4631.42,3884.96 4631.42,3897.29C4631.42,3909.62 4621.42,3919.61 4609.09,3919.61Z" style="fill:rgb(58,36,9);fill-rule:nonzero;"/>
        <path d="M1738.71,3897.44L1092.74,3897.44C1092.74,3871.83 1101.21,3848.21 1115.49,3829.2C1136.24,3801.59 1169.25,3783.73 1206.45,3783.73L1625,3783.73C1656.39,3783.73 1684.83,3796.46 1705.4,3817.04C1725.99,3837.61 1738.71,3866.05 1738.71,3897.44Z" style="fill:white;fill-rule:nonzero;"/>
        <path d="M1685.92,3897.44L1092.74,3897.44C1092.74,3871.83 1101.21,3848.21 1115.49,3829.2C1129.07,3823.46 1143.99,3820.29 1159.67,3820.29L1578.22,3820.29C1609.63,3820.29 1638.05,3833.01 1658.62,3853.6C1670.82,3865.79 1680.26,3880.74 1685.92,3897.44Z" style="fill:rgb(255,188,39);fill-rule:nonzero;"/>
        <path d="M1115.28,3877.13L1716.17,3877.13C1706.88,3835.36 1669.53,3804.05 1625,3804.05L1206.45,3804.05C1161.93,3804.05 1124.58,3835.36 1115.28,3877.13ZM1738.71,3917.75L1092.75,3917.75C1081.53,3917.75 1072.44,3908.66 1072.44,3897.44C1072.44,3823.54 1132.56,3763.42 1206.45,3763.42L1625,3763.42C1698.9,3763.42 1759.02,3823.54 1759.02,3897.44C1759.02,3908.66 1749.92,3917.75 1738.71,3917.75Z" style="fill:rgb(58,36,9);fill-rule:nonzero;"/>
        <path d="M1462.5,2701.42L1462.5,3783.73L1368.95,3783.73L1368.95,2701.42C1368.95,2682.54 1380.12,2666.27 1396.23,2658.89C1402.16,2656.16 1408.77,2654.64 1415.72,2654.64C1441.56,2654.64 1462.5,2675.58 1462.5,2701.42Z" style="fill:white;fill-rule:nonzero;"/>
        <path d="M1423.51,2701.42L1423.51,3783.73L1368.95,3783.73L1368.95,2701.42C1368.95,2682.54 1380.12,2666.27 1396.23,2658.89C1412.33,2666.27 1423.51,2682.54 1423.51,2701.42Z" style="fill:rgb(255,188,39);fill-rule:nonzero;"/>
        <path d="M1389.26,3763.42L1442.2,3763.42L1442.2,2701.41C1442.2,2686.82 1430.32,2674.94 1415.73,2674.94C1401.13,2674.94 1389.26,2686.82 1389.26,2701.41L1389.26,3763.42ZM1462.51,3804.05L1368.95,3804.05C1357.73,3804.05 1348.64,3794.95 1348.64,3783.74L1348.64,2701.41C1348.64,2664.42 1378.73,2634.32 1415.73,2634.32C1452.72,2634.32 1482.82,2664.42 1482.82,2701.41L1482.82,3783.74C1482.82,3794.95 1473.72,3804.05 1462.51,3804.05Z" style="fill:rgb(58,36,9);fill-rule:nonzero;"/>
        <path d="M1462.5,2596.63C1462.5,2609.55 1457.27,2621.25 1448.81,2629.71C1441.51,2637.01 1431.79,2641.92 1420.97,2643.1C1419.25,2643.31 1417.5,2643.41 1415.72,2643.41C1389.89,2643.41 1368.95,2622.47 1368.95,2596.63C1368.95,2584.75 1373.38,2573.9 1380.69,2565.64C1381.31,2564.93 1381.96,2564.23 1382.64,2563.55C1391.11,2555.08 1402.81,2549.85 1415.72,2549.85C1428.64,2549.85 1440.34,2555.08 1448.81,2563.55C1457.27,2572.01 1462.5,2583.71 1462.5,2596.63Z" style="fill:white;fill-rule:nonzero;"/>
        <path d="M1432.72,2612.12C1432.72,2623.99 1428.28,2634.85 1420.97,2643.1C1419.25,2643.31 1417.5,2643.41 1415.72,2643.41C1389.89,2643.41 1368.95,2622.47 1368.95,2596.63C1368.95,2584.75 1373.38,2573.9 1380.69,2565.64C1382.42,2565.43 1384.17,2565.34 1385.94,2565.34C1398.86,2565.34 1410.56,2570.57 1419.02,2579.03C1427.49,2587.5 1432.72,2599.2 1432.72,2612.12Z" style="fill:rgb(255,188,39);fill-rule:nonzero;"/>
        <path d="M1415.73,2570.16C1401.13,2570.16 1389.26,2582.04 1389.26,2596.63C1389.26,2611.22 1401.13,2623.1 1415.73,2623.1C1430.32,2623.1 1442.2,2611.22 1442.2,2596.63C1442.2,2582.04 1430.32,2570.16 1415.73,2570.16ZM1415.73,2663.72C1378.73,2663.72 1348.64,2633.62 1348.64,2596.63C1348.64,2559.64 1378.73,2529.54 1415.73,2529.54C1452.72,2529.54 1482.82,2559.64 1482.82,2596.63C1482.82,2633.62 1452.72,2663.72 1415.73,2663.72Z" style="fill:rgb(58,36,9);fill-rule:nonzero;"/>
        <path d="M3907.25,3897.44L3261.29,3897.44C3261.29,3871.83 3269.75,3848.21 3284.03,3829.2C3304.78,3801.59 3337.8,3783.73 3374.99,3783.73L3793.55,3783.73C3824.94,3783.73 3853.38,3796.46 3873.94,3817.04C3894.53,3837.61 3907.25,3866.05 3907.25,3897.44Z" style="fill:white;fill-rule:nonzero;"/>
        <path d="M3854.46,3897.44L3261.29,3897.44C3261.29,3871.83 3269.75,3848.21 3284.03,3829.2C3297.62,3823.46 3312.53,3820.29 3328.21,3820.29L3746.77,3820.29C3778.18,3820.29 3806.6,3833.01 3827.17,3853.6C3839.37,3865.79 3848.81,3880.74 3854.46,3897.44Z" style="fill:rgb(255,188,39);fill-rule:nonzero;"/>
        <path d="M3283.83,3877.13L3884.72,3877.13C3875.42,3835.36 3838.07,3804.05 3793.55,3804.05L3375,3804.05C3330.47,3804.05 3293.12,3835.36 3283.83,3877.13ZM3907.25,3917.75L3261.29,3917.75C3250.08,3917.75 3240.98,3908.66 3240.98,3897.44C3240.98,3823.54 3301.1,3763.42 3375,3763.42L3793.55,3763.42C3867.45,3763.42 3927.56,3823.54 3927.56,3897.44C3927.56,3908.66 3918.47,3917.75 3907.25,3917.75Z" style="fill:rgb(58,36,9);fill-rule:nonzero;"/>
        <path d="M3631.05,2701.42L3631.05,3783.73L3537.49,3783.73L3537.49,2701.42C3537.49,2682.54 3548.67,2666.27 3564.77,2658.89C3570.7,2656.16 3577.32,2654.64 3584.27,2654.64C3610.1,2654.64 3631.05,2675.58 3631.05,2701.42Z" style="fill:white;fill-rule:nonzero;"/>
        <path d="M3592.05,2701.42L3592.05,3783.73L3537.49,3783.73L3537.49,2701.42C3537.49,2682.54 3548.67,2666.27 3564.77,2658.89C3580.87,2666.27 3592.05,2682.54 3592.05,2701.42Z" style="fill:rgb(255,188,39);fill-rule:nonzero;"/>
        <path d="M3557.8,3763.42L3610.74,3763.42L3610.74,2701.41C3610.74,2686.82 3598.87,2674.94 3584.27,2674.94C3569.68,2674.94 3557.8,2686.82 3557.8,2701.41L3557.8,3763.42ZM3631.05,3804.05L3537.49,3804.05C3526.28,3804.05 3517.18,3794.95 3517.18,3783.74L3517.18,2701.41C3517.18,2664.42 3547.28,2634.32 3584.27,2634.32C3621.27,2634.32 3651.36,2664.42 3651.36,2701.41L3651.36,3783.74C3651.36,3794.95 3642.27,3804.05 3631.05,3804.05Z" style="fill:rgb(58,36,9);fill-rule:nonzero;"/>
        <path d="M3631.05,2596.63C3631.05,2609.55 3625.82,2621.25 3617.35,2629.71C3610.06,2637.01 3600.34,2641.92 3589.52,2643.1C3587.79,2643.31 3586.04,2643.41 3584.27,2643.41C3558.43,2643.41 3537.49,2622.47 3537.49,2596.63C3537.49,2584.75 3541.93,2573.9 3549.24,2565.64C3549.86,2564.93 3550.51,2564.23 3551.19,2563.55C3559.65,2555.08 3571.35,2549.85 3584.27,2549.85C3597.19,2549.85 3608.89,2555.08 3617.35,2563.55C3625.82,2572.01 3631.05,2583.71 3631.05,2596.63Z" style="fill:white;fill-rule:nonzero;"/>
        <path d="M3601.27,2612.12C3601.27,2623.99 3596.83,2634.85 3589.52,2643.1C3587.79,2643.31 3586.04,2643.41 3584.27,2643.41C3558.43,2643.41 3537.49,2622.47 3537.49,2596.63C3537.49,2584.75 3541.93,2573.9 3549.24,2565.64C3550.96,2565.43 3552.72,2565.34 3554.49,2565.34C3567.4,2565.34 3579.1,2570.57 3587.57,2579.03C3596.03,2587.5 3601.27,2599.2 3601.27,2612.12Z" style="fill:rgb(255,188,39);fill-rule:nonzero;"/>
        <path d="M3584.27,2570.16C3569.68,2570.16 3557.8,2582.04 3557.8,2596.63C3557.8,2611.22 3569.68,2623.1 3584.27,2623.1C3598.87,2623.1 3610.74,2611.22 3610.74,2596.63C3610.74,2582.04 3598.87,2570.16 3584.27,2570.16ZM3584.27,2663.72C3547.28,2663.72 3517.18,2633.62 3517.18,2596.63C3517.18,2559.64 3547.28,2529.54 3584.27,2529.54C3621.27,2529.54 3651.36,2559.64 3651.36,2596.63C3651.36,2633.62 3621.27,2663.72 3584.27,2663.72Z" style="fill:rgb(58,36,9);fill-rule:nonzero;"/>
        <path d="M1456.15,2665.39C1778.05,2855.77 2139.03,2950.96 2500,2950.96C2860.96,2950.96 3221.94,2855.77 3543.85,2665.39C3549.79,2661.88 3551.76,2654.21 3548.24,2648.27C3544.73,2642.33 3537.06,2640.36 3531.12,2643.87C3213.13,2831.93 2856.57,2925.96 2500,2925.96C2143.42,2925.96 1786.86,2831.93 1468.87,2643.87C1462.93,2640.36 1455.26,2642.33 1451.75,2648.27C1448.24,2654.21 1450.2,2661.88 1456.15,2665.39Z" style="fill:rgb(58,36,9);fill-rule:nonzero;"/>
        <path d="M3401.68,2791.38C3259.25,2859.32 3108.94,2911.13 2954.92,2945.38C2805.83,2978.53 2652.8,2995.33 2499.95,2995.33C2496.8,2995.33 2493.66,2995.32 2490.51,2995.3C2334.48,2994.6 2178.35,2976.39 2026.46,2941.16C1901.33,2912.12 1778.75,2871.49 1660.98,2820.01C1654.78,2817.3 1648.57,2814.55 1642.38,2811.77C1636.19,2809 1630.03,2806.2 1623.87,2803.36C1609.43,2796.71 1595.08,2789.9 1580.8,2782.93C1552.58,2769.14 1540.88,2735.08 1554.67,2706.88C1557.99,2700.07 1562.49,2694.23 1567.8,2689.47C1584.52,2674.49 1609.3,2670.27 1630.73,2680.73C1645.55,2687.96 1660.43,2695.01 1675.36,2701.85C1681.52,2704.7 1687.7,2707.49 1693.89,2710.24C1700.08,2713.02 1706.29,2715.75 1712.51,2718.44C2238.71,2947.06 2831.5,2937.36 3352.71,2688.73C3374.92,2678.13 3400.56,2683.22 3417.14,2699.56C3421.72,2704.06 3425.6,2709.43 3428.53,2715.57C3442.05,2743.92 3430.02,2777.86 3401.68,2791.38Z" style="fill:rgb(188,38,38);fill-rule:nonzero;"/>
        <path d="M3289.07,2716.6L3340.58,2818.13C3346.77,2815.35 3352.93,2812.56 3359.09,2809.71C3373.53,2803.07 3387.88,2796.26 3402.16,2789.29C3430.38,2775.5 3442.08,2741.44 3428.29,2713.23C3414.51,2685.01 3380.45,2673.29 3352.23,2687.09C3337.41,2694.32 3322.53,2701.37 3307.6,2708.21C3301.44,2711.05 3295.26,2713.85 3289.07,2716.6Z" style="fill:rgb(255,188,39);fill-rule:nonzero;"/>
        <path d="M1693.89,2710.24L1642.38,2811.77C1636.19,2809 1630.03,2806.2 1623.87,2803.36C1609.43,2796.71 1595.08,2789.9 1580.8,2782.93C1552.58,2769.14 1540.88,2735.08 1554.67,2706.88C1568.45,2678.65 1602.51,2666.94 1630.73,2680.73C1645.55,2687.96 1660.43,2695.01 1675.36,2701.85C1681.52,2704.7 1687.7,2707.49 1693.89,2710.24Z" style="fill:rgb(255,188,39);fill-rule:nonzero;"/>
        <path d="M3417.14,2699.56C3413.21,2703.09 3408.69,2706.13 3403.67,2708.52C3261.23,2776.45 3110.92,2828.27 2956.9,2862.52C2807.81,2895.67 2654.78,2912.47 2501.93,2912.47C2498.78,2912.47 2495.65,2912.45 2492.49,2912.43C2336.46,2911.73 2180.33,2893.52 2028.44,2858.29C1903.31,2829.26 1780.74,2788.62 1662.97,2737.15C1656.76,2734.43 1650.55,2731.69 1644.36,2728.91C1638.17,2726.13 1632.01,2723.33 1625.86,2720.49C1611.41,2713.85 1597.06,2707.04 1582.78,2700.07C1577.09,2697.29 1572.07,2693.68 1567.8,2689.47C1584.52,2674.49 1609.3,2670.27 1630.73,2680.73C1645.55,2687.96 1660.43,2695.01 1675.36,2701.85C1681.52,2704.7 1687.7,2707.49 1693.89,2710.24C1700.08,2713.02 1706.29,2715.75 1712.51,2718.44C2238.71,2947.06 2831.5,2937.36 3352.71,2688.73C3374.92,2678.13 3400.56,2683.22 3417.14,2699.56Z" style="fill:white;fill-rule:nonzero;"/>
        <path d="M3270.45,2724.8L3321.98,2826.37C3328.18,2823.66 3334.39,2820.91 3340.58,2818.13C3346.77,2815.35 3352.93,2812.56 3359.09,2809.71L3307.6,2708.21C3301.44,2711.05 3295.26,2713.85 3289.07,2716.6C3282.88,2719.37 3276.68,2722.1 3270.45,2724.8Z" style="fill:rgb(58,36,9);fill-rule:nonzero;"/>
        <path d="M1605.8,2695.25C1601.79,2695.25 1597.78,2695.92 1593.88,2697.25C1584.65,2700.43 1577.2,2707.01 1572.92,2715.78C1564.07,2733.89 1571.6,2755.83 1589.72,2764.68C1730.25,2833.33 1878.74,2886.04 2031.05,2921.37C2181.47,2956.26 2336.08,2974.3 2490.6,2975C2645.05,2975.7 2799.85,2959.05 2950.51,2925.56C3103.03,2891.65 3251.89,2840.34 3392.94,2773.05C3411.13,2764.37 3418.87,2742.51 3410.19,2724.31C3405.99,2715.5 3398.6,2708.85 3389.39,2705.59C3380.19,2702.33 3370.26,2702.85 3361.46,2707.05C3087.32,2837.83 2793.54,2903.17 2499.9,2903.18C2200.1,2903.19 1900.45,2835.09 1621.81,2698.98C1616.74,2696.5 1611.28,2695.25 1605.8,2695.25ZM2499.95,3015.64C2496.77,3015.64 2493.6,3015.63 2490.42,3015.62C2332.88,3014.91 2175.24,2996.51 2021.88,2960.94C1866.57,2924.92 1715.18,2871.17 1571.89,2801.18C1533.65,2782.5 1517.74,2736.19 1536.42,2697.95C1545.46,2679.43 1561.19,2665.54 1580.68,2658.84C1600.18,2652.14 1621.12,2653.43 1639.64,2662.48C2179.99,2926.43 2801.2,2929.32 3343.97,2670.39C3362.56,2661.52 3383.52,2660.42 3402.95,2667.3C3422.39,2674.18 3437.98,2688.21 3446.86,2706.82C3465.18,2745.23 3448.84,2791.39 3410.43,2809.71C3266.61,2878.32 3114.84,2930.63 2959.33,2965.21C2808.83,2998.67 2654.27,3015.64 2499.95,3015.64Z" style="fill:rgb(58,36,9);fill-rule:nonzero;"/>
        <path d="M1712.51,2718.44L1660.98,2820.01C1654.78,2817.3 1648.57,2814.55 1642.38,2811.77C1636.19,2809 1630.03,2806.2 1623.87,2803.36L1675.36,2701.85C1681.52,2704.7 1687.7,2707.49 1693.89,2710.24C1700.08,2713.02 1706.29,2715.75 1712.51,2718.44Z" style="fill:rgb(58,36,9);fill-rule:nonzero;"/>
    </g>
</svg>
